<?xml version="1.0" standalone="no"?>
<!DOCTYPE svg PUBLIC "-//W3C//DTD SVG 20010904//EN"
 "http://www.w3.org/TR/2001/REC-SVG-20010904/DTD/svg10.dtd">
<svg version="1.0" xmlns="http://www.w3.org/2000/svg"
 width="911.000000pt" height="911.000000pt" viewBox="0 0 911.000000 911.000000"
 preserveAspectRatio="xMidYMid meet">

<g transform="translate(0.000000,911.000000) scale(0.100000,-0.100000)"
fill="#000000" stroke="none">
<path d="M4245 9104 c-16 -2 -86 -9 -155 -15 -69 -6 -203 -24 -299 -40 -1670
-278 -3057 -1476 -3575 -3089 -108 -333 -176 -676 -206 -1035 -13 -155 -13
-575 0 -730 49 -584 198 -1126 450 -1640 706 -1441 2115 -2403 3713 -2534 165
-14 589 -14 754 0 1308 107 2505 774 3285 1829 455 616 745 1327 847 2077 32
231 41 369 41 633 0 264 -9 402 -41 633 -191 1406 -1042 2646 -2294 3347 -512
287 -1092 473 -1705 546 -127 15 -736 29 -815 18z m650 -444 c1646 -142 3049
-1252 3567 -2825 88 -267 153 -580 183 -882 19 -185 21 -571 5 -748 -76 -823
-381 -1580 -896 -2225 -139 -173 -451 -486 -624 -624 -480 -383 -1024 -652
-1610 -796 -532 -130 -1123 -149 -1675 -54 -453 79 -914 242 -1308 465 -153
87 -424 270 -567 385 -174 139 -486 451 -624 624 -375 470 -640 1002 -785
1574 -127 498 -156 1049 -85 1576 113 840 508 1652 1105 2274 275 287 603 542
949 738 501 284 1088 467 1660 517 139 12 566 12 705 1z"/>
<path d="M4275 8560 c-551 -41 -1051 -177 -1535 -420 -406 -204 -746 -453
-1075 -791 -615 -631 -985 -1399 -1107 -2299 -19 -142 -22 -210 -22 -495 -1
-353 8 -460 60 -745 281 -1530 1446 -2774 2954 -3155 354 -89 605 -119 1000
-119 373 0 613 27 935 104 1553 372 2748 1641 3019 3210 43 247 58 424 58 700
0 656 -135 1229 -427 1809 -568 1131 -1659 1941 -2900 2151 -287 48 -693 69
-960 50z m246 -612 c90 -66 189 -141 219 -166 l55 -45 7 39 c4 22 7 96 7 167
l1 127 26 0 27 0 -5 -215 c-3 -119 -8 -218 -12 -222 -3 -4 -19 5 -34 19 -40
37 -241 192 -372 288 -63 45 -116 84 -118 86 -6 4 18 44 27 44 5 0 82 -55 172
-122z m754 97 c94 -8 180 -15 193 -15 17 0 22 -6 22 -25 0 -30 5 -30 -215 -10
-88 8 -166 15 -172 15 -9 0 -13 -21 -13 -74 l0 -74 88 -7 c149 -11 164 -14
160 -38 -3 -25 4 -25 -177 -13 l-134 8 7 52 c3 28 6 84 6 124 l0 72 33 0 c17
0 109 -7 202 -15z m-1314 -37 c154 -70 230 -227 185 -382 -30 -103 -86 -169
-189 -224 -47 -24 -62 -27 -157 -27 -95 0 -111 3 -162 28 -144 70 -222 230
-184 376 42 164 189 266 371 258 59 -2 94 -10 136 -29z m1695 -25 c-3 -16 -19
-136 -36 -268 -16 -132 -32 -254 -35 -271 l-5 -31 117 -16 c233 -33 243 -36
243 -64 0 -24 -2 -25 -42 -19 -24 4 -114 18 -202 31 -87 13 -161 27 -164 30
-4 3 11 147 33 320 l38 315 29 0 c27 0 29 -3 24 -27z m-2402 -60 c11 -56 106
-594 106 -603 0 -6 -11 -10 -24 -10 -29 0 -22 -26 -91 358 -26 140 -44 260
-41 268 10 25 44 16 50 -13z m2967 -95 c45 -57 86 -107 91 -113 5 -6 58 15
139 55 109 54 131 62 139 50 5 -8 10 -20 10 -25 0 -6 -67 -44 -150 -85 -145
-72 -150 -74 -164 -55 -8 11 -55 71 -105 134 -84 104 -90 115 -74 127 10 7 21
14 25 14 4 0 44 -46 89 -102z m-1740 -99 c87 -65 198 -152 248 -194 83 -69 90
-77 79 -95 -7 -11 -15 -20 -18 -20 -3 0 -48 35 -100 78 -53 42 -150 118 -216
169 l-121 92 5 -170 5 -169 -27 0 c-25 0 -26 2 -26 63 0 34 -3 134 -7 221 -5
136 -4 158 8 151 8 -5 84 -62 170 -126z m-1781 96 c0 -8 142 -560 145 -563 2
-2 75 13 162 32 191 43 203 44 203 14 0 -22 -12 -26 -200 -67 -111 -24 -203
-42 -205 -40 -10 11 -156 603 -151 615 5 13 46 21 46 9z m2598 -182 c15 -4 22
-13 22 -30 0 -23 -3 -24 -37 -19 -21 3 -77 8 -125 12 l-88 6 0 -39 c0 -22 -3
-68 -6 -102 -6 -57 -9 -61 -32 -61 l-25 0 7 77 c3 42 6 98 6 126 l0 50 128 -7
c70 -4 137 -10 150 -13z m981 -152 c13 -8 11 -26 -10 -123 -23 -111 -25 -113
-53 -116 -21 -3 -27 0 -24 10 3 7 15 64 28 126 23 109 30 121 59 103z m-3804
-476 c61 -3 167 -14 235 -25 871 -141 1366 -691 1460 -1620 14 -138 13 -500
-1 -660 -9 -106 -8 -143 5 -235 36 -239 145 -608 216 -724 47 -78 60 -138 39
-177 -25 -48 -118 -86 -261 -109 l-38 -6 0 -52 c0 -81 25 -179 65 -255 40 -78
40 -104 -2 -146 -33 -33 -75 -44 -144 -38 -59 4 -187 -10 -251 -28 -27 -8 -38
-17 -38 -30 0 -21 11 -25 100 -35 240 -26 298 -128 150 -262 -76 -69 -100
-109 -100 -164 0 -114 -42 -271 -90 -337 -63 -88 -126 -113 -329 -132 -144
-14 -282 -3 -441 36 -143 36 -217 66 -485 200 -132 65 -258 121 -295 130 -109
27 -188 16 -383 -55 -179 -65 -237 -75 -237 -41 0 11 17 57 39 102 21 46 62
139 90 207 194 461 444 801 850 1153 l65 55 -61 69 c-285 324 -542 753 -637
1066 -54 176 -57 203 -66 713 -11 578 -26 931 -44 1035 -24 133 -73 201 -192
262 -67 35 -74 42 -49 52 70 26 524 67 665 60 30 -2 105 -6 165 -9z m4567 0
c108 -5 355 -36 399 -50 32 -10 22 -22 -51 -61 -83 -43 -143 -106 -164 -172
-33 -100 -42 -276 -65 -1247 -7 -279 -14 -388 -26 -445 -79 -360 -322 -788
-704 -1240 l-30 -36 105 -88 c337 -287 593 -629 770 -1031 31 -71 79 -179 107
-240 27 -60 52 -125 55 -144 l5 -34 -49 6 c-27 3 -119 32 -204 63 -204 75
-272 81 -407 35 -51 -17 -188 -79 -305 -139 -319 -163 -499 -214 -753 -215
-303 -1 -418 45 -485 196 -25 57 -47 153 -55 249 -8 90 -40 149 -111 201 -42
32 -74 86 -74 128 0 33 60 85 118 102 28 9 83 19 121 23 39 3 79 13 88 20 17
13 17 15 -1 28 -38 30 -107 39 -370 46 -10 0 -33 15 -52 34 -43 43 -44 78 -4
149 35 62 57 148 62 239 l4 67 -71 12 c-143 23 -227 68 -240 128 -8 37 8 83
54 160 63 105 163 440 206 686 16 91 16 120 5 317 -48 806 102 1357 475 1747
241 252 567 409 995 482 129 22 370 38 475 33 33 -2 113 -6 177 -9z m-3715
-5385 c47 -21 83 -70 83 -112 0 -23 -4 -28 -25 -28 -21 0 -25 5 -25 29 0 59
-105 109 -167 79 -15 -7 -34 -25 -43 -40 -24 -44 0 -74 115 -143 119 -72 145
-105 145 -181 0 -92 -64 -144 -178 -144 -79 0 -141 23 -187 70 -31 32 -39 48
-43 89 -4 49 -4 51 21 51 22 0 25 -4 25 -34 0 -44 22 -77 71 -104 90 -51 203
-34 236 34 31 66 -4 120 -115 178 -128 68 -169 130 -133 204 33 69 132 92 220
52z m2781 -7 c25 -18 59 -70 50 -78 -1 -1 -13 -6 -25 -9 -16 -5 -23 -3 -23 7
0 21 -41 54 -77 62 -22 4 -46 0 -77 -13 -47 -21 -66 -45 -66 -85 0 -45 45 -67
180 -87 129 -19 179 -59 188 -149 4 -43 0 -57 -21 -90 -85 -129 -348 -118
-386 16 -8 27 -6 32 12 37 12 3 21 4 22 3 4 -19 36 -65 58 -81 59 -44 208 -16
251 46 20 29 20 87 0 116 -24 34 -62 49 -155 62 -46 6 -103 20 -127 32 -100
48 -94 160 11 213 63 32 141 31 185 -2z m-2335 -59 c144 -17 147 -17 147 -41
0 -21 -3 -23 -32 -19 -18 3 -78 10 -133 16 -55 6 -110 13 -122 15 -20 5 -22 0
-28 -50 -4 -31 -4 -59 -1 -63 4 -4 49 -11 99 -17 83 -10 92 -12 89 -30 -2 -11
-5 -21 -7 -23 -3 -3 -158 15 -211 24 l-31 6 13 91 c7 51 13 98 14 105 0 9 9
12 28 8 15 -3 93 -13 175 -22z m1967 7 c0 -19 -3 -20 -107 -36 -24 -4 -43 -12
-43 -18 0 -7 13 -115 29 -242 16 -126 27 -233 25 -237 -7 -12 -44 -10 -44 2 0
18 -51 435 -56 458 -4 22 -8 23 -82 20 -66 -3 -77 -1 -80 14 -4 20 2 22 158
41 173 21 200 21 200 -2z m-390 -45 c0 -23 -3 -24 -97 -30 -54 -4 -122 -9
-150 -13 l-53 -5 0 -59 0 -59 105 7 c102 6 105 5 105 -15 0 -22 -7 -23 -186
-36 l-62 -4 -7 100 c-4 54 -4 102 0 106 5 6 116 16 323 30 17 2 22 -3 22 -22z
m-974 -20 c61 -28 72 -42 51 -63 -14 -14 -18 -14 -44 4 -92 64 -223 54 -307
-25 -41 -38 -76 -118 -76 -173 0 -68 43 -146 103 -186 83 -56 182 -62 269 -17
28 14 32 14 46 0 15 -14 14 -17 -3 -31 -11 -8 -42 -22 -69 -30 -142 -43 -294
14 -361 136 -25 46 -29 65 -29 129 0 64 4 83 29 129 57 104 137 149 265 150
59 1 86 -4 126 -23z m465 -8 c39 -25 54 -70 40 -117 -19 -64 -41 -72 -204 -74
l-142 -2 -3 105 -3 105 144 0 c117 0 148 -3 168 -17z m-1158 -259 c53 -6 97
-15 97 -19 0 -34 -9 -36 -108 -25 -53 7 -99 11 -101 9 -6 -6 -21 -107 -16
-112 2 -3 73 -13 157 -23 84 -10 154 -18 156 -18 1 -1 2 -11 2 -22 0 -21 -3
-21 -72 -15 -115 11 -290 35 -295 40 -5 5 14 169 23 194 2 9 14 12 31 8 16 -3
72 -10 126 -17z m1587 -53 c0 -23 -3 -24 -102 -31 l-103 -7 3 -59 4 -60 111 8
c175 12 211 11 215 -9 2 -13 -7 -18 -40 -22 -82 -11 -322 -26 -327 -20 -3 3
-8 50 -9 104 l-4 98 54 6 c29 4 76 8 103 9 28 2 60 4 73 5 17 2 22 -3 22 -22z
m-392 -96 c30 -49 51 -94 47 -100 -16 -26 -43 -5 -88 70 l-49 80 -103 0 -102
0 -7 -31 c-3 -17 -6 -56 -6 -85 0 -47 -2 -54 -20 -54 -19 0 -20 7 -20 105 l0
105 148 0 147 -1 53 -89z"/>
<path d="M3686 7966 c-73 -31 -138 -93 -166 -159 -27 -62 -24 -161 5 -222 25
-50 82 -108 137 -137 62 -33 203 -33 269 0 137 67 210 238 157 363 -63 145
-252 218 -402 155z"/>
<path d="M4580 1410 l0 -60 110 0 c97 0 112 2 130 20 27 27 26 65 -2 84 -17
12 -49 16 -130 16 l-108 0 0 -60z"/>
</g>
</svg>
